# MagicaVoxel @ Ephtracy

# group
o 16x16x16

# material
mtllib test-0-16x16x16.mtl
usemtl palette

# normals
vn -1 0 0
vn 1 0 0
vn 0 0 1
vn 0 0 -1
vn 0 -1 0
vn 0 1 0

# texcoords
vt 0.259766 0.5
vt 0.306641 0.5
vt 0.919922 0.5

# verts
v -0.8 0 0.8
v -0.8 0 -0.8
v -0.8 0.2 0.8
v -0.8 0.2 -0.8
v -0.8 1.4 0.8
v -0.8 1.4 -0.8
v -0.8 1.5 0.6
v -0.8 1.5 -0.6
v -0.8 1.6 0.8
v -0.8 1.6 0.6
v -0.8 1.6 -0.6
v -0.8 1.6 -0.8
v 0.2 0.7 0.3
v 0.2 0.7 0.2
v 0.2 1 0.3
v 0.2 1 0.2
v 0.3 0.6 0.4
v 0.3 0.6 0.3
v 0.3 1.1 0.4
v 0.3 1.1 0.3
v 0.4 0.5 0.5
v 0.4 0.5 0.4
v 0.4 1.2 0.5
v 0.4 1.2 0.4
v 0.5 0.4 0.6
v 0.5 0.4 0.5
v 0.5 1.3 0.6
v 0.5 1.3 0.5
v 0.6 0.3 0.7
v 0.6 0.3 0.6
v 0.6 1.4 0.7
v 0.6 1.4 0.6
v 0.7 0.2 0.8
v 0.7 0.2 0.7
v 0.7 1.4 0.8
v 0.7 1.4 0.7
v 0.7 1.5 0.8
v 0.7 1.5 0.7
v -0.7 0.2 0.8
v -0.7 0.2 0.7
v -0.7 1.4 0.8
v -0.7 1.4 0.7
v -0.7 1.5 0.8
v -0.7 1.5 0.7
v -0.6 0.3 0.7
v -0.6 0.3 0.6
v -0.6 1.4 0.7
v -0.6 1.4 0.6
v -0.5 0.4 0.6
v -0.5 0.4 0.5
v -0.5 1.3 0.6
v -0.5 1.3 0.5
v -0.4 0.5 0.5
v -0.4 0.5 0.4
v -0.4 1.2 0.5
v -0.4 1.2 0.4
v -0.3 0.6 0.4
v -0.3 0.6 0.3
v -0.3 1.1 0.4
v -0.3 1.1 0.3
v -0.2 0.7 0.3
v -0.2 0.7 0.2
v -0.2 1 0.3
v -0.2 1 0.2
v 0.8 0 0.8
v 0.8 0 -0.8
v 0.8 0.2 0.8
v 0.8 0.2 -0.8
v 0.8 1.4 0.8
v 0.8 1.4 -0.8
v 0.8 1.5 0.6
v 0.8 1.5 -0.6
v 0.8 1.6 0.8
v 0.8 1.6 0.6
v 0.8 1.6 -0.6
v 0.8 1.6 -0.8
v -0.8 0 0.8
v -0.8 0.2 0.8
v -0.8 1.4 0.8
v -0.8 1.6 0.8
v -0.7 0.2 0.8
v -0.7 1.4 0.8
v -0.7 1.5 0.8
v 0.7 0.2 0.8
v 0.7 1.4 0.8
v 0.7 1.5 0.8
v 0.8 0 0.8
v 0.8 0.2 0.8
v 0.8 1.4 0.8
v 0.8 1.6 0.8
v -0.7 0.2 0.7
v -0.7 1.4 0.7
v -0.7 1.5 0.7
v -0.6 0.3 0.7
v -0.6 1.4 0.7
v 0.6 0.3 0.7
v 0.6 1.4 0.7
v 0.7 0.2 0.7
v 0.7 1.4 0.7
v 0.7 1.5 0.7
v -0.6 0.3 0.6
v -0.6 1.4 0.6
v -0.5 0.4 0.6
v -0.5 1.3 0.6
v 0.5 0.4 0.6
v 0.5 1.3 0.6
v 0.6 0.3 0.6
v 0.6 1.4 0.6
v -0.5 0.4 0.5
v -0.5 1.3 0.5
v -0.4 0.5 0.5
v -0.4 1.2 0.5
v 0.4 0.5 0.5
v 0.4 1.2 0.5
v 0.5 0.4 0.5
v 0.5 1.3 0.5
v -0.4 0.5 0.4
v -0.4 1.2 0.4
v -0.3 0.6 0.4
v -0.3 1.1 0.4
v 0.3 0.6 0.4
v 0.3 1.1 0.4
v 0.4 0.5 0.4
v 0.4 1.2 0.4
v -0.3 0.6 0.3
v -0.3 1.1 0.3
v -0.2 0.7 0.3
v -0.2 1 0.3
v 0.2 0.7 0.3
v 0.2 1 0.3
v 0.3 0.6 0.3
v 0.3 1.1 0.3
v -0.2 0.7 0.2
v -0.2 1 0.2
v 0.2 0.7 0.2
v 0.2 1 0.2
v -0.8 0 -0.8
v -0.8 0.2 -0.8
v -0.8 1.4 -0.8
v -0.8 1.6 -0.8
v 0.8 0 -0.8
v 0.8 0.2 -0.8
v 0.8 1.4 -0.8
v 0.8 1.6 -0.8
v -0.8 0 0.8
v 0.8 0 0.8
v -0.7 0 0.7
v 0.7 0 0.7
v -0.7 0 -0.7
v 0.7 0 -0.7
v -0.8 0 -0.8
v 0.8 0 -0.8
v -0.2 1 0.3
v 0.2 1 0.3
v -0.2 1 0.2
v 0.2 1 0.2
v -0.3 1.1 0.4
v 0.3 1.1 0.4
v -0.3 1.1 0.3
v 0.3 1.1 0.3
v -0.4 1.2 0.5
v 0.4 1.2 0.5
v -0.4 1.2 0.4
v 0.4 1.2 0.4
v -0.5 1.3 0.6
v 0.5 1.3 0.6
v -0.5 1.3 0.5
v 0.5 1.3 0.5
v -0.6 1.4 0.7
v 0.6 1.4 0.7
v -0.6 1.4 0.6
v 0.6 1.4 0.6
v -0.7 1.5 0.8
v 0.7 1.5 0.8
v -0.7 1.5 0.7
v 0.7 1.5 0.7
v -0.7 0.2 0.8
v 0.7 0.2 0.8
v -0.7 0.2 0.7
v 0.7 0.2 0.7
v -0.6 0.3 0.7
v 0.6 0.3 0.7
v -0.6 0.3 0.6
v 0.6 0.3 0.6
v -0.5 0.4 0.6
v 0.5 0.4 0.6
v -0.5 0.4 0.5
v 0.5 0.4 0.5
v -0.4 0.5 0.5
v 0.4 0.5 0.5
v -0.4 0.5 0.4
v 0.4 0.5 0.4
v -0.3 0.6 0.4
v 0.3 0.6 0.4
v -0.3 0.6 0.3
v 0.3 0.6 0.3
v -0.2 0.7 0.3
v 0.2 0.7 0.3
v -0.2 0.7 0.2
v 0.2 0.7 0.2
v -0.8 1.6 0.8
v 0.8 1.6 0.8
v -0.8 1.6 0.6
v 0.8 1.6 0.6
v -0.8 1.6 -0.6
v 0.8 1.6 -0.6
v -0.8 1.6 -0.8
v 0.8 1.6 -0.8

# faces
f 3/3/1 2/3/1 1/3/1
f 4/3/1 2/3/1 3/3/1
f 5/2/1 4/2/1 3/2/1
f 6/2/1 4/2/1 5/2/1
f 7/3/1 6/3/1 5/3/1
f 8/3/1 6/3/1 7/3/1
f 9/3/1 7/3/1 5/3/1
f 10/2/1 8/2/1 7/2/1
f 10/3/1 7/3/1 9/3/1
f 11/3/1 6/3/1 8/3/1
f 11/2/1 8/2/1 10/2/1
f 12/3/1 6/3/1 11/3/1
f 15/2/1 14/2/1 13/2/1
f 16/2/1 14/2/1 15/2/1
f 19/2/1 18/2/1 17/2/1
f 20/2/1 18/2/1 19/2/1
f 23/2/1 22/2/1 21/2/1
f 24/2/1 22/2/1 23/2/1
f 27/2/1 26/2/1 25/2/1
f 28/2/1 26/2/1 27/2/1
f 31/2/1 30/2/1 29/2/1
f 32/2/1 30/2/1 31/2/1
f 35/2/1 34/2/1 33/2/1
f 36/2/1 34/2/1 35/2/1
f 37/3/1 36/3/1 35/3/1
f 38/3/1 36/3/1 37/3/1
f 39/2/2 40/2/2 41/2/2
f 41/2/2 40/2/2 42/2/2
f 41/3/2 42/3/2 43/3/2
f 43/3/2 42/3/2 44/3/2
f 45/2/2 46/2/2 47/2/2
f 47/2/2 46/2/2 48/2/2
f 49/2/2 50/2/2 51/2/2
f 51/2/2 50/2/2 52/2/2
f 53/2/2 54/2/2 55/2/2
f 55/2/2 54/2/2 56/2/2
f 57/2/2 58/2/2 59/2/2
f 59/2/2 58/2/2 60/2/2
f 61/2/2 62/2/2 63/2/2
f 63/2/2 62/2/2 64/2/2
f 65/3/2 66/3/2 67/3/2
f 67/3/2 66/3/2 68/3/2
f 67/2/2 68/2/2 69/2/2
f 69/2/2 68/2/2 70/2/2
f 69/3/2 70/3/2 71/3/2
f 71/3/2 70/3/2 72/3/2
f 69/3/2 71/3/2 73/3/2
f 71/2/2 72/2/2 74/2/2
f 73/3/2 71/3/2 74/3/2
f 72/3/2 70/3/2 75/3/2
f 74/2/2 72/2/2 75/2/2
f 75/3/2 70/3/2 76/3/2
f 81/3/3 78/3/3 77/3/3
f 81/2/3 79/2/3 78/2/3
f 82/3/3 80/3/3 79/3/3
f 82/2/3 79/2/3 81/2/3
f 83/3/3 80/3/3 82/3/3
f 84/3/3 81/3/3 77/3/3
f 86/3/3 80/3/3 83/3/3
f 87/3/3 84/3/3 77/3/3
f 88/2/3 85/2/3 84/2/3
f 88/3/3 84/3/3 87/3/3
f 89/3/3 86/3/3 85/3/3
f 89/2/3 85/2/3 88/2/3
f 90/3/3 80/3/3 86/3/3
f 90/3/3 86/3/3 89/3/3
f 94/2/3 92/2/3 91/2/3
f 95/3/3 93/3/3 92/3/3
f 95/2/3 92/2/3 94/2/3
f 96/2/3 94/2/3 91/2/3
f 97/3/3 93/3/3 95/3/3
f 98/2/3 96/2/3 91/2/3
f 98/2/3 97/2/3 96/2/3
f 99/3/3 93/3/3 97/3/3
f 99/2/3 97/2/3 98/2/3
f 100/3/3 93/3/3 99/3/3
f 103/2/3 102/2/3 101/2/3
f 104/2/3 102/2/3 103/2/3
f 105/2/3 103/2/3 101/2/3
f 106/2/3 102/2/3 104/2/3
f 107/2/3 105/2/3 101/2/3
f 107/2/3 106/2/3 105/2/3
f 108/2/3 102/2/3 106/2/3
f 108/2/3 106/2/3 107/2/3
f 111/2/3 110/2/3 109/2/3
f 112/2/3 110/2/3 111/2/3
f 113/2/3 111/2/3 109/2/3
f 114/2/3 110/2/3 112/2/3
f 115/2/3 113/2/3 109/2/3
f 115/2/3 114/2/3 113/2/3
f 116/2/3 110/2/3 114/2/3
f 116/2/3 114/2/3 115/2/3
f 119/2/3 118/2/3 117/2/3
f 120/2/3 118/2/3 119/2/3
f 121/2/3 119/2/3 117/2/3
f 122/2/3 118/2/3 120/2/3
f 123/2/3 121/2/3 117/2/3
f 123/2/3 122/2/3 121/2/3
f 124/2/3 118/2/3 122/2/3
f 124/2/3 122/2/3 123/2/3
f 127/2/3 126/2/3 125/2/3
f 128/2/3 126/2/3 127/2/3
f 129/2/3 127/2/3 125/2/3
f 130/2/3 126/2/3 128/2/3
f 131/2/3 129/2/3 125/2/3
f 131/2/3 130/2/3 129/2/3
f 132/2/3 126/2/3 130/2/3
f 132/2/3 130/2/3 131/2/3
f 135/2/3 134/2/3 133/2/3
f 136/2/3 134/2/3 135/2/3
f 137/3/4 138/3/4 141/3/4
f 138/2/4 139/2/4 142/2/4
f 141/3/4 138/3/4 142/3/4
f 139/3/4 140/3/4 143/3/4
f 142/2/4 139/2/4 143/2/4
f 143/3/4 140/3/4 144/3/4
f 147/3/5 146/3/5 145/3/5
f 148/3/5 146/3/5 147/3/5
f 149/3/5 147/3/5 145/3/5
f 149/1/5 148/1/5 147/1/5
f 150/3/5 146/3/5 148/3/5
f 150/1/5 148/1/5 149/1/5
f 151/3/5 149/3/5 145/3/5
f 151/3/5 150/3/5 149/3/5
f 152/3/5 146/3/5 150/3/5
f 152/3/5 150/3/5 151/3/5
f 155/2/5 154/2/5 153/2/5
f 156/2/5 154/2/5 155/2/5
f 159/2/5 158/2/5 157/2/5
f 160/2/5 158/2/5 159/2/5
f 163/2/5 162/2/5 161/2/5
f 164/2/5 162/2/5 163/2/5
f 167/2/5 166/2/5 165/2/5
f 168/2/5 166/2/5 167/2/5
f 171/3/5 170/3/5 169/3/5
f 172/3/5 170/3/5 171/3/5
f 175/3/5 174/3/5 173/3/5
f 176/3/5 174/3/5 175/3/5
f 177/3/6 178/3/6 179/3/6
f 179/3/6 178/3/6 180/3/6
f 181/2/6 182/2/6 183/2/6
f 183/2/6 182/2/6 184/2/6
f 185/2/6 186/2/6 187/2/6
f 187/2/6 186/2/6 188/2/6
f 189/2/6 190/2/6 191/2/6
f 191/2/6 190/2/6 192/2/6
f 193/2/6 194/2/6 195/2/6
f 195/2/6 194/2/6 196/2/6
f 197/2/6 198/2/6 199/2/6
f 199/2/6 198/2/6 200/2/6
f 201/3/6 202/3/6 203/3/6
f 203/3/6 202/3/6 204/3/6
f 203/2/6 204/2/6 205/2/6
f 205/2/6 204/2/6 206/2/6
f 205/3/6 206/3/6 207/3/6
f 207/3/6 206/3/6 208/3/6
